<mxfile host="localhost" modified="2020-05-22T09:58:34.569Z" agent="5.0 (Macintosh; Intel Mac OS X 10_15_4) AppleWebKit/537.36 (KHTML, like Gecko) Code/1.45.1 Chrome/78.0.3904.130 Electron/7.2.4 Safari/537.36" etag="zLkg2srJXVifV3BXBaQ7" version="13.0.9">
    <diagram id="6hGFLwfOUW9BJ-s0fimq" name="Page-1">
        <mxGraphModel dx="805" dy="519" grid="1" gridSize="10" guides="1" tooltips="1" connect="1" arrows="1" fold="1" page="1" pageScale="1" pageWidth="827" pageHeight="1169" math="0" shadow="0">
            <root>
                <mxCell id="0"/>
                <mxCell id="1" parent="0"/>
                <mxCell id="19" value="&lt;font style=&quot;font-size: 16px&quot;&gt;cursor&lt;/font&gt;" style="rounded=1;whiteSpace=wrap;html=1;" parent="1" vertex="1">
                    <mxGeometry x="90" y="720" width="120" height="60" as="geometry"/>
                </mxCell>
                <mxCell id="26" value="" style="edgeStyle=orthogonalEdgeStyle;rounded=0;orthogonalLoop=1;jettySize=auto;html=1;entryX=0;entryY=0.75;entryDx=0;entryDy=0;" parent="1" source="21" target="22" edge="1">
                    <mxGeometry relative="1" as="geometry">
                        <mxPoint x="120" y="350" as="targetPoint"/>
                        <Array as="points">
                            <mxPoint x="120" y="395"/>
                        </Array>
                    </mxGeometry>
                </mxCell>
                <mxCell id="27" value="" style="edgeStyle=orthogonalEdgeStyle;rounded=0;orthogonalLoop=1;jettySize=auto;html=1;" parent="1" source="21" target="23" edge="1">
                    <mxGeometry relative="1" as="geometry"/>
                </mxCell>
                <mxCell id="29" value="" style="edgeStyle=orthogonalEdgeStyle;rounded=0;orthogonalLoop=1;jettySize=auto;html=1;entryX=0;entryY=0.5;entryDx=0;entryDy=0;" parent="1" source="21" target="24" edge="1">
                    <mxGeometry relative="1" as="geometry">
                        <mxPoint x="120" y="130" as="targetPoint"/>
                        <Array as="points">
                            <mxPoint x="120" y="70"/>
                        </Array>
                    </mxGeometry>
                </mxCell>
                <mxCell id="21" value="headerfooter" style="rounded=1;whiteSpace=wrap;html=1;" parent="1" vertex="1">
                    <mxGeometry x="60" y="210" width="120" height="60" as="geometry"/>
                </mxCell>
                <mxCell id="22" value="CHeaderFooterController&lt;br&gt;(HdrFtr)" style="rounded=1;whiteSpace=wrap;html=1;" parent="1" vertex="1">
                    <mxGeometry x="230" y="350" width="150" height="60" as="geometry"/>
                </mxCell>
                <mxCell id="33" value="logicDocument: the outside, whole document" style="rounded=1;whiteSpace=wrap;html=1;" parent="1" vertex="1">
                    <mxGeometry x="470" y="350" width="150" height="60" as="geometry"/>
                </mxCell>
                <mxCell id="23" value="HeaderFooterController" style="rounded=1;whiteSpace=wrap;html=1;" parent="1" vertex="1">
                    <mxGeometry x="230" y="210" width="150" height="60" as="geometry"/>
                </mxCell>
                <mxCell id="24" value="HeaderFooterRecalculateState" style="rounded=1;whiteSpace=wrap;html=1;" parent="1" vertex="1">
                    <mxGeometry x="230" y="40" width="210" height="60" as="geometry"/>
                </mxCell>
                <mxCell id="30" value="create: insertCursor() -&amp;gt; createCursor()[cursor.ts]" style="rounded=1;whiteSpace=wrap;html=1;" parent="1" vertex="1">
                    <mxGeometry x="245" y="620" width="120" height="60" as="geometry"/>
                </mxCell>
                <mxCell id="31" value="update:&amp;nbsp;&lt;br&gt;mousedown()-&amp;gt; shouldUpdateCursor(), renderSetCursor()&lt;br&gt;mouseup()-&amp;gt;&amp;nbsp; same again&lt;br&gt;updateCursor() might relate with key events&amp;nbsp;&lt;br&gt;&lt;font color=&quot;#cc0000&quot;&gt;MISS&lt;/font&gt;:&amp;nbsp; before shouldUpdateCursor(), would traverse handlemousedown() -&amp;gt; &lt;font color=&quot;#ff0000&quot;&gt;recalculateCurPos&lt;/font&gt;()!!" style="rounded=1;whiteSpace=wrap;html=1;" parent="1" vertex="1">
                    <mxGeometry x="245" y="690" width="345" height="90" as="geometry"/>
                </mxCell>
                <mxCell id="38" value="HeaderFooterPage[]" style="rounded=1;whiteSpace=wrap;html=1;" parent="1" vertex="1">
                    <mxGeometry x="470" y="440" width="150" height="60" as="geometry"/>
                </mxCell>
                <mxCell id="39" value="HeaderFooter&lt;br&gt;(also in HeaderFooter.ts)" style="rounded=1;whiteSpace=wrap;html=1;" parent="1" vertex="1">
                    <mxGeometry x="470" y="270" width="150" height="60" as="geometry"/>
                </mxCell>
                <mxCell id="40" value="" style="strokeWidth=2;html=1;shape=mxgraph.flowchart.annotation_2;align=left;labelPosition=right;pointerEvents=1;" parent="1" vertex="1">
                    <mxGeometry x="392.5" y="300" width="57.5" height="180" as="geometry"/>
                </mxCell>
                <mxCell id="41" value="cursor:&lt;br&gt;when enter, initial cursor pos (leftmost?)" style="rounded=1;whiteSpace=wrap;html=1;" parent="1" vertex="1">
                    <mxGeometry x="240" y="1200" width="280" height="60" as="geometry"/>
                </mxCell>
                <mxCell id="43" value="document.curPos.x&amp;nbsp; .y&amp;nbsp; : true reflection of pointer, not dealt with textheight, compensation, etc.&lt;br&gt;&lt;br&gt;&lt;font color=&quot;#ccffcc&quot;&gt;How does true pointer position&amp;nbsp; -&amp;gt;&amp;nbsp; cursor position coordinates?&lt;/font&gt;&lt;br&gt;handlemousedown() -&amp;gt; mousebuttondown() -&amp;gt; &lt;font color=&quot;#ff9933&quot;&gt;recalculateCurPos&lt;/font&gt;()&lt;br&gt;Actually the cursor position is synced up with &lt;font color=&quot;#ff9933&quot;&gt;paragraph&lt;/font&gt;.curPos&lt;br&gt;&lt;br&gt;&lt;font color=&quot;#ccffcc&quot;&gt;in header, cursor only reflects pointer coords, seems not through recalculateCurPos()?&lt;/font&gt;&lt;br&gt;getcursorpos() in document.ts&amp;nbsp; feels good, but not right&lt;br&gt;&lt;font color=&quot;#ffd966&quot;&gt;cuz recalculateCurPos() is at default recalculating logicDocument, not hdrftr.headerfooter.content, which is equivalent to documentContent(logicDocument). Need to point to the latter&lt;/font&gt;.&lt;br&gt;&lt;br&gt;&lt;font color=&quot;#ccffcc&quot;&gt;where does recalculateCurPos() in documentContent.ts trigger?&lt;/font&gt;&lt;br&gt;&lt;font color=&quot;#ffffff&quot;&gt;through respective controller! in onlyoffice, set_docpostype() in documentcontentbase.js.&lt;/font&gt;" style="rounded=1;whiteSpace=wrap;html=1;" parent="1" vertex="1">
                    <mxGeometry x="240" y="820" width="370" height="350" as="geometry"/>
                </mxCell>
                <mxCell id="44" value="&lt;font color=&quot;#ccffe6&quot;&gt;Doccurpostype.hdrftr&lt;/font&gt; means currently headerfooter &lt;font color=&quot;#ccffe6&quot;&gt;enabled&lt;/font&gt;!" style="rounded=1;whiteSpace=wrap;html=1;" parent="1" vertex="1">
                    <mxGeometry x="414" y="620" width="120" height="60" as="geometry"/>
                </mxCell>
                <mxCell id="45" value="&lt;font color=&quot;#ccffcc&quot;&gt;why Document.ts and DocumentContent.ts have such name?&lt;/font&gt;&lt;br&gt;they both extend from &lt;font color=&quot;#ffcc99&quot;&gt;documentcontentbase&lt;/font&gt;; &lt;font color=&quot;#ffcc99&quot;&gt;Docuement&lt;/font&gt; is the instance of the &lt;font color=&quot;#ffcc99&quot;&gt;'whole document';&lt;/font&gt;&amp;nbsp;it is a unique one and most frequently manipulated one. While &lt;font color=&quot;#ffcc99&quot;&gt;DocumentContent&lt;/font&gt; is a general instance that feels like 'whenever a feature needs a new &lt;font color=&quot;#ffcc99&quot;&gt;logicDocument&lt;/font&gt; and its methods/props, this is the place to construct &amp;amp; complement'" style="rounded=1;whiteSpace=wrap;html=1;" parent="1" vertex="1">
                    <mxGeometry x="600" y="520" width="230" height="190" as="geometry"/>
                </mxCell>
            </root>
        </mxGraphModel>
    </diagram>
</mxfile>